- 
http://www.Speed.Cd
 
http://www.Speed.Cd       the fast  and The Hottest Private Tracker on the net

Please Seed back to make the speed Faster!!
 ............ NFO .............
-General
Complete name                            : E:A.Dark.Truth.2012.DVDRip.XviD-playXDA.Dark.Truth.2012.DVDRip.XviD-playXD.avi
Format                                   : AVI
Format/Info                              : Audio Video Interleave
File size                                : 697 MiB
Duration                                 : 1h 40mn
Overall bit rate mode                    : Variable
Overall bit rate                         : 973 Kbps
Writing application                      : VirtualDubMod 1.5.10.2 (build 2540/release)
Writing library                          : VirtualDubMod build 2540/release

Video
ID                                       : 0
Format                                   : MPEG-4 Visual
Format profile                           : Advanced Simple@L5
Format settings, BVOP                    : 3
Format settings, QPel                    : Yes
Format settings, GMC                     : No warppoints
Format settings, Matrix                  : Default (MPEG)
Codec ID                                 : XVID
Codec ID/Hint                            : XviD
Duration                                 : 1h 40mn
Bit rate                                 : 844 Kbps
Width                                    : 640 pixels
Height                                   : 346 pixels
Display aspect ratio                     : 1.85:1
Frame rate                               : 23.976 fps
Color space                              : YUV
Chroma subsampling                       : 4:2:0
Bit depth                                : 8 bits
Scan type                                : Progressive
Compression mode                         : Lossy
Bits/(Pixel*Frame)                       : 0.159
Stream size                              : 605 MiB (87%)
Writing library                          : XviD 64

Audio
ID                                       : 1
Format                                   : MPEG Audio
Format version                           : Version 1
Format profile                           : Layer 3
Mode                                     : Joint stereo
Mode extension                           : MS Stereo
Codec ID                                 : 55
Codec ID/Hint                            : MP3
Duration                                 : 1h 40mn
Bit rate mode                            : Variable
Bit rate                                 : 116 Kbps
Nominal bit rate                         : 128 Kbps
Channel(s)                               : 2 channels
Sampling rate                            : 48.0 KHz
Compression mode                         : Lossy
Stream size                              : 83.0 MiB (12%)
Alignment                                : Aligned on interleaves
Interleave, duration                     : 24 ms (0.58 video frame)
Interleave, preload duration             : 159 ms
Writing library                          : LAME3.99r
Encoding settings                        : -m j -V 4 -q 2 -lowpass 17 --abr 128